<svg width="20" height="21" viewBox="0 0 20 21" fill="none" xmlns="http://www.w3.org/2000/svg">
<path fill-rule="evenodd" clip-rule="evenodd" d="M16.4484 8.66654H18.3334V11.9999H16.4492C16.2484 12.7757 15.9167 13.4982 15.4709 14.1365L16.6667 15.3332L15.0001 16.9999L13.8042 15.8032C13.1642 16.249 12.4434 16.5815 11.6667 16.7815V18.6665H8.33341V16.7815C7.55758 16.5815 6.83591 16.249 6.19675 15.8032L5.00008 16.9999L3.33341 15.3332L4.53008 14.1365C4.08425 13.499 3.75175 12.7765 3.55175 11.9999H1.66675V8.66654H3.55175C3.75175 7.88988 4.08341 7.16821 4.53008 6.52988L3.33341 5.33321L5.00008 3.66654L6.19675 4.86321C6.83508 4.41654 7.55675 4.08488 8.33341 3.88488V1.99988H11.6667V3.88404C12.4434 4.08488 13.1642 4.41654 13.8042 4.86238L15.0001 3.66571L16.6667 5.33238L15.4701 6.52988C15.9159 7.16821 16.2484 7.89071 16.4484 8.66654ZM10.0001 13.6665C11.841 13.6665 13.3334 12.1741 13.3334 10.3332C13.3334 8.49226 11.841 6.99988 10.0001 6.99988C8.15913 6.99988 6.66675 8.49226 6.66675 10.3332C6.66675 12.1741 8.15913 13.6665 10.0001 13.6665Z" fill="#B9BBBE"/>
</svg>
