<svg width="20" height="20" viewBox="0 0 20 20" fill="none" xmlns="http://www.w3.org/2000/svg">
<path d="M5.58341 9.16663H4.16675C4.16675 10.1583 4.45008 11.0833 4.91675 11.9L5.94175 10.875C5.71675 10.3583 5.58341 9.78329 5.58341 9.16663Z" fill="#B9BBBE"/>
<path d="M7.50841 9.23746C7.51258 9.26038 7.51675 9.28329 7.51675 9.30829L12.5001 4.31663V4.16663C12.5001 2.78329 11.3834 1.66663 10.0001 1.66663C8.61675 1.66663 7.50008 2.78329 7.50008 4.16663V9.16663C7.50008 9.19163 7.50425 9.21454 7.50841 9.23746Z" fill="#B9BBBE"/>
<path d="M9.76983 13.4105L9.13608 14.0442L8.5445 14.6406C8.74825 14.6941 8.95591 14.7365 9.16675 14.7666V18.3333H10.8334V14.7666C13.5667 14.3583 15.8334 12.0083 15.8334 9.16663H14.4167C14.4167 11.6666 12.3001 13.4166 10.0001 13.4166C9.92308 13.4166 9.84633 13.4145 9.76983 13.4105Z" fill="#B9BBBE"/>
<path d="M17.5 3.55833L16.4417 2.5L2.5 16.4417L3.55833 17.5L7.05 14.0167L8.075 12.9833L9.45833 11.6L12.4917 8.56667L17.5 3.55833Z" fill="#ED4245"/>
</svg>
