<svg width="20" height="21" viewBox="0 0 20 21" fill="none" xmlns="http://www.w3.org/2000/svg">
<g clip-path="url(#clip0)">
<path d="M10.0001 2.00244C5.40508 2.00244 1.66675 5.73994 1.66675 10.3358V17.0025C1.66675 17.9225 2.41258 18.6691 3.33341 18.6691H5.00008C5.92008 18.6691 6.66675 17.9225 6.66675 17.0025V14.5025C6.66675 13.5825 5.92008 12.8358 5.00008 12.8358H3.33341V10.3358C3.33341 6.65911 6.32425 3.66911 10.0001 3.66911C13.6759 3.66911 16.6667 6.65911 16.6667 10.3358V12.8358H15.0001C14.0801 12.8358 13.3334 13.5825 13.3334 14.5025V17.0025C13.3334 17.9225 14.0801 18.6691 15.0001 18.6691H16.6667C17.5867 18.6691 18.3334 17.9225 18.3334 17.0025V10.3358C18.3334 5.73994 14.5951 2.00244 10.0001 2.00244Z" fill="#B9BBBE"/>
</g>
<defs>
<clipPath id="clip0">
<rect width="20" height="20" fill="white" transform="translate(0 0.333252)"/>
</clipPath>
</defs>
</svg>
