<svg width="51" height="51" viewBox="0 0 51 51" fill="none" xmlns="http://www.w3.org/2000/svg">
<rect x="11.7354" y="5.73953" width="40" height="2.5" rx="1.25" transform="rotate(90 11.7354 5.73953)" fill="black"/>
<path d="M41.7354 26.9895C42.4257 26.9895 42.9854 26.4299 42.9854 25.7395C42.9854 25.0492 42.4257 24.4895 41.7354 24.4895V26.9895ZM15.8515 24.8556C15.3633 25.3438 15.3633 26.1353 15.8515 26.6234L23.8064 34.5784C24.2946 35.0665 25.086 35.0665 25.5742 34.5784C26.0623 34.0902 26.0623 33.2988 25.5742 32.8106L18.5031 25.7395L25.5742 18.6685C26.0623 18.1803 26.0623 17.3889 25.5742 16.9007C25.086 16.4125 24.2946 16.4125 23.8064 16.9007L15.8515 24.8556ZM41.7354 24.4895H16.7354V26.9895H41.7354V24.4895Z" fill="black"/>
</svg>
