<svg width="51" height="51" viewBox="0 0 51 51" fill="none" xmlns="http://www.w3.org/2000/svg">
<rect width="40" height="2.5" rx="1.25" transform="matrix(-1.19249e-08 1 1 1.19249e-08 38.8877 5.73953)" fill="black"/>
<path d="M8.8877 26.9895C8.19734 26.9895 7.6377 26.4299 7.6377 25.7395C7.6377 25.0492 8.19734 24.4895 8.8877 24.4895V26.9895ZM34.7716 24.8556C35.2597 25.3438 35.2597 26.1353 34.7716 26.6234L26.8166 34.5784C26.3285 35.0665 25.537 35.0665 25.0489 34.5784C24.5607 34.0902 24.5607 33.2988 25.0489 32.8106L32.1199 25.7395L25.0489 18.6685C24.5607 18.1803 24.5607 17.3889 25.0489 16.9007C25.537 16.4125 26.3285 16.4125 26.8166 16.9007L34.7716 24.8556ZM8.8877 24.4895H33.8877V26.9895H8.8877V24.4895Z" fill="black"/>
</svg>
