<svg width="51" height="51" viewBox="0 0 51 51" fill="none" xmlns="http://www.w3.org/2000/svg">
<path d="M25.3115 5.73953C24.6212 5.73953 24.0615 6.29918 24.0615 6.98953L24.0615 44.4895C24.0615 45.1799 24.6212 45.7395 25.3115 45.7395C26.0019 45.7395 26.5615 45.1799 26.5615 44.4895L26.5615 6.98953C26.5615 6.29918 26.0019 5.73953 25.3115 5.73953Z" fill="black"/>
<path d="M5.31152 24.4895C4.62117 24.4895 4.06152 25.0492 4.06152 25.7395C4.06152 26.4299 4.62117 26.9895 5.31152 26.9895V24.4895ZM22.1954 26.6234C22.6836 26.1353 22.6836 25.3438 22.1954 24.8556L14.2405 16.9007C13.7523 16.4125 12.9608 16.4125 12.4727 16.9007C11.9845 17.3889 11.9845 18.1803 12.4727 18.6685L19.5438 25.7395L12.4727 32.8106C11.9845 33.2988 11.9845 34.0902 12.4727 34.5784C12.9608 35.0665 13.7523 35.0665 14.2405 34.5784L22.1954 26.6234ZM5.31152 26.9895L21.3115 26.9895V24.4895L5.31152 24.4895V26.9895Z" fill="black"/>
<path d="M45.3115 24.4895C46.0019 24.4895 46.5615 25.0492 46.5615 25.7395C46.5615 26.4299 46.0019 26.9895 45.3115 26.9895V24.4895ZM28.4276 26.6234C27.9395 26.1353 27.9395 25.3438 28.4276 24.8556L36.3826 16.9007C36.8707 16.4125 37.6622 16.4125 38.1504 16.9007C38.6385 17.3889 38.6385 18.1803 38.1504 18.6685L31.0793 25.7395L38.1504 32.8106C38.6385 33.2988 38.6385 34.0902 38.1504 34.5784C37.6622 35.0665 36.8707 35.0665 36.3826 34.5784L28.4276 26.6234ZM45.3115 26.9895L29.3115 26.9895V24.4895L45.3115 24.4895V26.9895Z" fill="black"/>
</svg>
