<svg width="20" height="20" viewBox="0 0 20 20" fill="none" xmlns="http://www.w3.org/2000/svg">
<path d="M5.13511 12.5054C5.09057 12.5018 5.04554 12.5 5.00008 12.5H3.33341V9.99996C3.33341 6.32329 6.32425 3.33329 10.0001 3.33329C11.2342 3.33329 12.391 3.67028 13.3833 4.25712L14.5919 3.04858C13.2744 2.17549 11.6956 1.66663 10.0001 1.66663C5.40508 1.66663 1.66675 5.40413 1.66675 9.99996V15.9737L5.13511 12.5054Z" fill="#B9BBBE"/>
<path d="M16.4376 8.26401C16.587 8.81771 16.6667 9.39963 16.6667 9.99996V12.5H15.0001C14.0801 12.5 13.3334 13.2466 13.3334 14.1666V16.6666C13.3334 17.5866 14.0801 18.3333 15.0001 18.3333H16.6667C17.5876 18.3333 18.3334 17.5866 18.3334 16.6666V9.99996C18.3334 8.92288 18.1281 7.89287 17.7545 6.94711L16.4376 8.26401Z" fill="#B9BBBE"/>
<path d="M2.66752 19.6869L1.48901 18.5084L17.9882 2.00928L19.1667 3.18779L2.66752 19.6869Z" fill="#ED4245"/>
</svg>
