<svg width="20" height="21" viewBox="0 0 20 21" fill="none" xmlns="http://www.w3.org/2000/svg">
<g clip-path="url(#clip0)">
<path d="M10.0001 11.9999C11.3834 11.9999 12.4917 10.8832 12.4917 9.49988L12.5001 4.49988C12.5001 3.11654 11.3834 1.99988 10.0001 1.99988C8.61675 1.99988 7.50008 3.11654 7.50008 4.49988V9.49988C7.50008 10.8832 8.61675 11.9999 10.0001 11.9999Z" fill="#B9BBBE"/>
<path d="M14.4167 9.49988C14.4167 11.9999 12.3001 13.7499 10.0001 13.7499C7.70008 13.7499 5.58341 11.9999 5.58341 9.49988H4.16675C4.16675 12.3415 6.43341 14.6915 9.16675 15.0999V18.6665H10.8334V15.0999C13.5667 14.6999 15.8334 12.3499 15.8334 9.49988H14.4167Z" fill="#B9BBBE"/>
</g>
<defs>
<clipPath id="clip0">
<rect width="20" height="20" fill="white" transform="translate(0 0.333252)"/>
</clipPath>
</defs>
</svg>
